 <svg  version="1.0" xmlns="http://www.w3.org/2000/svg"  width="300.000000pt" height="350.000000pt" viewBox="0 0 300.000000 350.000000"  preserveAspectRatio="xMidYMid meet">  <g transform="translate(0.000000,350.000000) scale(0.100000,-0.100000)" fill="#8000ff" stroke="none"> <path d="M1178 3059 c-19 -11 -25 -63 -9 -73 5 -3 -11 -41 -35 -83 -56 -97 -215 -418 -288 -580 l-54 -123 49 0 c27 0 49 -5 49 -10 0 -6 -9 -28 -20 -50 -11 -22 -20 -42 -20 -45 0 -3 89 -5 199 -5 159 0 201 -3 210 -14 9 -11 9 -19 -1 -35 -14 -22 -12 -22 -671 -26 -27 0 -46 -4 -43 -10 2 -5 20 -45 40 -87 l35 -77 -63 -3 -63 -3 116 -255 c63 -140 206 -436 316 -658 111 -222 198 -405 193 -408 -4 -3 -8 -18 -8 -34 0 -38 32 -57 66 -41 41 19 28 91 -17 91 -12 0 -27 24 -49 77 -128 311 -315 730 -461 1030 l-74 152 33 3 c29 4 35 0 46 -26 45 -107 226 -483 381 -793 101 -200 179 -363 175 -363 -15 0 -17 -39 -3 -59 26 -38 83 -21 83 25 0 24 -15 40 -43 45 -14 3 -40 55 -96 189 -94 224 -239 550 -355 799 -48 101 -85 185 -83 187 1 2 72 9 157 17 148 13 156 13 173 -5 20 -21 48 -23 65 -6 15 15 19 2 26 -97 5 -61 3 -76 -6 -67 -14 14 -48 101 -48 123 0 18 -26 33 -41 23 -14 -8 -11 -26 11 -72 25 -51 25 -60 1 -38 -17 15 -20 16 -34 1 -24 -23 -11 -42 33 -49 31 -5 40 -12 48 -36 12 -34 6 -37 -26 -14 -29 20 -54 11 -50 -18 2 -17 10 -23 29 -24 14 -1 33 -5 43 -11 16 -9 15 -11 -4 -35 -28 -36 -26 -58 5 -58 18 0 25 5 25 19 0 11 5 23 10 26 10 6 12 -11 14 -95 1 -30 4 -35 23 -33 19 2 24 -3 29 -37 6 -34 10 -40 30 -40 25 0 33 26 16 46 -12 12 -62 151 -62 169 0 13 27 7 126 -29 13 -5 -17 -160 -38 -204 -14 -27 0 -46 28 -40 13 2 19 12 20 33 1 43 36 195 44 195 4 0 13 -7 20 -15 13 -15 4 -83 -26 -216 -4 -19 -1 -28 11 -33 22 -8 47 12 41 33 -3 9 -2 39 2 66 l8 50 17 -49 c9 -27 17 -59 17 -72 0 -28 18 -41 53 -39 36 2 41 9 57 78 16 68 32 85 30 31 -3 -62 -2 -66 23 -62 25 3 26 14 6 115 -13 62 -4 113 20 113 9 0 41 -128 46 -185 2 -16 3 -33 4 -37 1 -5 10 -8 21 -8 26 0 36 25 22 53 -9 17 -35 119 -46 180 0 4 29 18 67 31 58 19 67 20 67 7 0 -17 -31 -104 -57 -158 -8 -18 -12 -37 -8 -42 9 -15 45 -14 46 2 1 6 2 17 4 22 1 6 3 18 3 28 2 13 7 17 21 12 27 -8 34 9 32 78 -1 39 1 57 8 52 6 -3 11 -15 11 -26 0 -14 7 -19 25 -19 32 0 34 31 4 61 -21 21 -21 22 -4 32 10 5 30 10 44 11 19 1 27 7 29 24 4 29 -21 38 -50 18 -33 -23 -40 -20 -24 13 16 29 34 41 66 41 26 0 35 32 14 47 -15 11 -21 10 -36 -4 -10 -9 -18 -13 -18 -10 0 12 24 63 39 80 13 16 13 19 0 33 -22 21 -46 8 -52 -30 -7 -41 -34 -106 -44 -106 -8 0 -6 134 3 159 3 11 7 12 16 3 17 -17 45 -15 66 6 17 17 27 17 152 6 74 -7 147 -13 161 -13 l26 -1 -35 -72 c-126 -263 -344 -751 -450 -1008 -30 -73 -44 -96 -60 -98 -30 -5 -45 -28 -38 -57 9 -35 51 -44 79 -17 18 18 19 25 9 47 -11 23 5 59 186 423 109 218 238 483 286 587 l88 191 32 -4 33 -4 -58 -118 c-143 -293 -369 -794 -465 -1033 -34 -86 -43 -100 -71 -112 -37 -16 -45 -52 -17 -79 18 -19 28 -20 55 -6 20 11 27 64 10 74 -5 3 23 66 62 138 123 234 381 771 521 1086 l45 102 -64 0 -64 0 39 86 c22 47 40 87 40 87 0 1 -21 2 -47 2 -659 4 -657 4 -671 26 -10 16 -10 24 -1 35 9 11 51 14 210 14 110 0 199 2 199 4 0 2 -9 25 -20 51 -11 26 -20 49 -20 51 0 2 22 4 50 4 l49 0 -20 48 c-53 124 -198 423 -275 567 -68 127 -83 164 -76 180 11 25 -1 60 -24 69 -26 10 -64 -20 -64 -50 0 -19 7 -29 29 -37 26 -9 36 -27 82 -141 56 -139 152 -359 216 -491 21 -44 39 -83 41 -87 2 -5 -5 -8 -15 -8 -14 0 -38 41 -102 174 -45 96 -116 235 -156 310 -40 75 -69 139 -64 142 13 8 11 48 -3 62 -15 15 -51 15 -66 0 -26 -26 -8 -78 27 -78 11 -1 35 -48 75 -150 32 -83 91 -222 131 -310 40 -88 70 -160 67 -160 -4 0 -63 -9 -132 -19 -109 -17 -127 -18 -141 -5 -19 17 -51 18 -67 2 -15 -15 -16 -50 -1 -65 8 -8 8 -13 0 -17 -16 -11 -13 -66 4 -72 13 -5 13 -8 0 -21 -18 -18 -19 -45 -3 -61 18 -18 62 -14 75 6 10 16 19 18 84 11 41 -5 177 -15 304 -24 126 -9 231 -17 233 -19 1 -2 -9 -29 -25 -60 l-27 -56 -171 0 c-159 0 -171 1 -183 20 -16 27 -57 26 -77 -2 l-16 -23 2 30 c2 17 7 36 12 42 15 20 0 45 -25 41 -21 -3 -23 -7 -20 -59 l4 -57 -48 -16 c-26 -9 -49 -16 -50 -16 -7 0 41 127 54 142 8 10 12 24 9 33 -8 18 -46 20 -51 3 -2 -7 -12 -42 -22 -78 -9 -36 -19 -69 -22 -73 -9 -17 -111 170 -127 232 l-16 64 48 51 c26 28 53 54 59 58 49 33 58 46 45 62 -18 21 -40 20 -49 -1 -4 -10 -37 -46 -73 -80 -55 -53 -71 -63 -101 -63 -31 0 -44 10 -112 80 -42 44 -80 80 -85 80 -5 0 -15 -7 -22 -16 -12 -14 -10 -19 10 -33 12 -9 50 -43 83 -76 l61 -60 -17 -65 c-9 -36 -40 -104 -69 -153 l-52 -88 -13 32 c-7 17 -19 54 -26 83 -9 34 -19 52 -31 54 -25 5 -37 -19 -21 -43 7 -11 22 -48 34 -83 l21 -63 -22 7 c-56 17 -64 24 -70 53 -4 17 -4 45 0 61 5 27 3 30 -20 30 -28 0 -40 -19 -26 -41 5 -8 8 -27 8 -44 0 -29 -1 -29 -11 -7 -14 29 -63 30 -80 2 -12 -19 -24 -20 -183 -20 l-171 0 -26 57 c-15 32 -26 59 -24 60 1 1 105 9 231 18 127 9 264 20 305 24 67 7 76 6 88 -11 15 -20 52 -24 70 -6 15 15 16 50 1 65 -8 8 -8 13 0 17 14 9 14 63 1 71 -6 4 -4 15 5 29 13 19 13 25 -1 44 -18 25 -50 29 -74 7 -14 -13 -27 -13 -101 -1 -46 8 -105 17 -131 21 l-46 6 48 102 c63 133 165 374 193 454 15 45 27 63 39 63 28 0 52 44 38 69 -12 24 -58 29 -78 9 -14 -14 -16 -50 -3 -63 5 -6 -24 -71 -73 -161 -45 -84 -115 -221 -154 -305 -54 -115 -77 -155 -92 -157 -17 -3 -12 12 36 115 61 128 184 414 229 531 19 49 33 72 45 72 38 0 54 54 24 84 -18 18 -32 20 -56 5z m50 -42 c3 -12 -4 -17 -22 -17 -18 0 -26 5 -26 18 0 14 2 15 10 2 9 -14 14 -7 11 13 -1 5 4 7 11 5 7 -3 14 -12 16 -21z m575 6 c-4 -11 -3 -14 5 -9 7 4 12 2 12 -3 0 -6 -9 -11 -20 -11 -19 0 -27 20 -13 33 12 13 22 7 16 -10z m-533 -119 c0 -8 -4 -13 -9 -10 -5 4 -12 0 -14 -6 -3 -7 -6 -4 -6 8 -1 11 2 24 5 27 10 10 24 -2 24 -19z m494 1 c4 -11 -2 -15 -20 -15 -21 0 -23 2 -12 15 17 18 24 19 32 0z m200 -231 c3 -8 2 -12 -4 -9 -6 3 -10 10 -10 16 0 14 7 11 14 -7z m-923 -17 c-10 -9 -11 -8 -5 6 3 10 9 15 12 12 3 -3 0 -11 -7 -18z m944 -27 c3 -5 1 -10 -4 -10 -6 0 -11 5 -11 10 0 6 2 10 4 10 3 0 8 -4 11 -10z m-987 -75 c-6 -14 -13 -24 -14 -22 -6 6 9 47 17 47 5 0 3 -11 -3 -25z m89 -27 c-3 -8 -6 -5 -6 6 -1 11 2 17 5 13 3 -3 4 -12 1 -19z m-107 -12 c0 -3 -4 -8 -10 -11 -5 -3 -10 -1 -10 4 0 6 5 11 10 11 6 0 10 -2 10 -4z m-44 -73 c-8 -15 -15 -25 -16 -21 0 12 23 58 27 54 3 -2 -2 -17 -11 -33z m1021 5 c-3 -8 -6 -5 -6 6 -1 11 2 17 5 13 3 -3 4 -12 1 -19z m113 2 c6 -11 7 -20 3 -20 -5 0 -14 9 -21 20 -7 11 -8 20 -2 20 5 0 14 -9 20 -20z m-1045 -50 c3 -5 1 -10 -4 -10 -6 0 -11 5 -11 10 0 6 2 10 4 10 3 0 8 -4 11 -10z m960 0 c3 -5 1 -10 -4 -10 -6 0 -11 5 -11 10 0 6 2 10 4 10 3 0 8 -4 11 -10z m112 -32 c-3 -7 -5 -2 -5 12 0 14 2 19 5 13 2 -7 2 -19 0 -25z m-1084 -8 c-5 -19 -23 -29 -23 -12 0 7 20 32 26 32 1 0 0 -9 -3 -20z m992 0 c3 -5 1 -10 -4 -10 -6 0 -11 5 -11 10 0 6 2 10 4 10 3 0 8 -4 11 -10z m112 -32 c-3 -7 -5 -2 -5 12 0 14 2 19 5 13 2 -7 2 -19 0 -25z m-98 -2 c9 -11 9 -16 -1 -22 -7 -4 -10 -4 -6 1 4 4 3 14 -3 22 -6 7 -9 13 -6 13 2 0 10 -6 16 -14z m-1035 -31 c-4 -8 -8 -15 -10 -15 -2 0 -4 7 -4 15 0 8 4 15 10 15 5 0 7 -7 4 -15z m-118 -17 c-8 -51 48 -69 78 -26 13 19 14 18 29 -11 15 -30 15 -31 -9 -31 -19 0 -28 -8 -36 -32 -15 -42 -15 -41 13 -55 22 -12 21 -13 -21 -12 -25 0 -39 3 -32 6 6 2 12 12 12 22 0 9 5 22 10 27 7 7 4 19 -10 37 -12 15 -24 26 -28 26 -4 -1 -15 -1 -24 0 -17 1 -17 3 -1 36 19 41 24 44 19 13z m1291 -17 c10 -28 9 -30 -18 -36 -16 -4 -36 -16 -44 -28 -15 -21 -17 -21 -29 -4 -7 9 -21 17 -30 17 -20 0 -21 14 -1 30 12 10 19 10 27 2 17 -17 65 -15 72 3 3 8 3 22 0 30 -4 8 -2 15 3 15 5 0 14 -13 20 -29z m-107 9 c0 -5 -4 -10 -10 -10 -5 0 -10 5 -10 10 0 6 5 10 10 10 6 0 10 -4 10 -10z m-331 -108 c-11 -17 -11 -24 -1 -34 16 -16 15 -36 -3 -54 -12 -13 -15 -12 -25 6 -8 14 -8 26 0 40 7 14 8 26 0 39 -13 25 -13 44 0 36 6 -3 10 0 10 7 0 9 5 8 16 -4 13 -13 14 -19 3 -36z m-399 26 c0 -7 -5 -20 -10 -28 -8 -13 -11 -13 -26 2 -9 9 -13 21 -10 27 10 15 46 14 46 -1z m-184 -4 c96 -6 113 -10 123 -27 10 -16 10 -22 -1 -32 -10 -9 -46 -8 -168 4 -155 16 -155 16 -145 39 11 25 17 26 191 16z m922 -18 l11 -24 -92 -7 c-51 -4 -121 -10 -157 -14 -53 -7 -67 -5 -76 7 -9 12 -9 21 -1 34 12 18 36 20 233 26 66 2 72 0 82 -22z m53 -37 c6 -12 0 -15 -34 -17 -36 -1 -39 0 -19 8 13 6 27 20 30 32 4 16 7 18 10 8 3 -8 8 -22 13 -31z m-797 -15 c9 -34 -7 -52 -29 -34 -18 15 -19 26 -2 45 18 21 24 18 31 -11z m171 6 c-3 -5 -10 -10 -16 -10 -5 0 -9 5 -9 10 0 6 7 10 16 10 8 0 12 -4 9 -10z m60 0 c8 -13 -15 -13 -35 0 -12 8 -11 10 7 10 12 0 25 -4 28 -10z m-20 -30 c15 0 31 -62 21 -78 -3 -5 4 -20 15 -33 11 -13 43 -62 71 -108 40 -66 48 -85 37 -92 -19 -12 -36 -11 -60 4 -17 10 -22 9 -33 -5 -7 -10 -21 -18 -30 -18 -15 0 -17 7 -20 85 -1 11 -4 25 -8 31 -4 6 -2 27 4 48 9 28 9 39 -1 49 -16 16 -47 -4 -44 -29 2 -24 -23 -183 -30 -190 -3 -3 -10 4 -17 15 -12 24 -38 28 -46 7 -4 -11 -12 -12 -35 -4 -16 5 -29 12 -29 14 0 11 115 190 127 197 8 5 11 16 8 28 -10 31 4 74 28 84 12 6 24 7 25 3 2 -5 10 -8 17 -8z m-205 -74 c0 -3 -7 -3 -15 0 -11 5 -13 2 -9 -10 4 -11 1 -16 -10 -16 -19 0 -20 13 -6 41 10 17 13 18 25 5 8 -8 15 -17 15 -20z m410 0 c0 -15 -6 -22 -20 -22 -14 0 -20 7 -20 21 0 12 3 24 6 28 12 12 34 -6 34 -27z m-1103 -44 c-10 -10 -17 -25 -17 -33 -1 -8 -7 -3 -14 11 -17 30 -15 35 20 38 26 2 26 1 11 -16z m1793 6 c0 -4 -4 -8 -10 -8 -5 0 -10 -8 -11 -17 0 -14 -2 -15 -6 -3 -4 8 -13 21 -22 27 -14 11 -11 12 17 11 17 -1 32 -6 32 -10z m-1790 -93 c0 -5 -5 -3 -10 5 -5 8 -10 20 -10 25 0 6 5 3 10 -5 5 -8 10 -19 10 -25z m1744 -2 c-4 -15 -7 -34 -7 -43 0 -13 -17 -39 -60 -90 -6 -8 -11 -16 -9 -18 2 -1 1 -8 -1 -15 -3 -7 -6 -4 -6 6 -1 10 6 28 14 40 9 14 11 27 5 37 -6 10 -2 19 18 32 15 10 27 21 27 25 1 14 16 53 21 53 2 0 1 -12 -2 -27z m-1706 -41 c16 -17 26 -37 24 -50 -4 -24 -22 -30 -22 -7 0 18 -36 38 -53 29 -6 -4 -1 5 13 21 14 16 19 25 13 21 -7 -4 -13 -2 -13 3 0 18 10 13 38 -17z m832 -76 c-3 -10 -7 10 -7 45 0 61 0 62 7 19 4 -25 4 -53 0 -64z m-397 58 c-6 -15 -13 -17 -37 -8 -23 9 -20 24 5 24 13 0 18 4 13 13 -6 9 -3 8 8 -1 9 -8 14 -20 11 -28z m841 20 c3 -9 4 -20 0 -25 -14 -23 -57 2 -47 27 7 19 39 18 47 -2z m-778 -42 c-4 -3 -14 2 -24 12 -16 18 -16 18 6 6 13 -6 21 -14 18 -18z m694 13 c-7 -9 -15 -13 -17 -11 -7 7 7 26 19 26 6 0 6 -6 -2 -15z m-1280 -4 c-8 -5 -18 -7 -22 -5 -5 3 -6 -7 -3 -23 l6 -28 -15 25 c-21 34 -20 35 17 38 23 1 28 -1 17 -7z m1882 -18 c-4 -23 -6 -25 -12 -8 -3 10 -15 22 -26 26 -15 6 -13 8 12 8 29 1 31 -1 26 -26z m-1172 2 c1 6 5 0 10 -13 5 -12 7 -28 4 -36 -10 -26 -30 -6 -32 32 -2 27 0 33 8 22 5 -8 10 -10 10 -5z m442 -30 c-2 -13 -11 -26 -19 -29 -8 -3 -11 -2 -8 3 3 5 1 12 -4 16 -11 6 -3 36 13 47 15 10 24 -9 18 -37z m-485 0 c11 -4 -15 -56 -66 -135 -7 -10 -10 12 -10 72 l-1 87 33 -10 c17 -6 37 -12 44 -14z m585 -60 l-3 -85 28 0 c27 0 28 -2 28 -45 0 -25 -3 -45 -7 -45 -5 0 -8 -6 -8 -14 0 -7 -6 -19 -14 -25 -18 -15 -26 4 -19 42 3 16 -1 37 -12 53 -9 15 -12 23 -6 20 20 -13 11 10 -34 82 -28 47 -40 74 -32 77 7 2 26 8 42 13 17 6 32 11 35 11 3 1 4 -37 2 -84z m-422 40 c0 -8 -2 -15 -4 -15 -2 0 -6 7 -10 15 -3 8 -1 15 4 15 6 0 10 -7 10 -15z m61 -18 c-8 -8 -11 -7 -11 4 0 9 3 19 7 23 4 4 9 2 11 -4 3 -7 -1 -17 -7 -23z m53 18 c3 -8 1 -15 -4 -15 -6 0 -10 7 -10 15 0 8 2 15 4 15 2 0 6 -7 10 -15z m88 0 c0 -5 -5 -11 -11 -13 -6 -2 -11 4 -11 13 0 9 5 15 11 13 6 -2 11 -8 11 -13z m-902 1 c0 -3 -4 -8 -10 -11 -5 -3 -10 -1 -10 4 0 6 5 11 10 11 6 0 10 -2 10 -4z m956 -58 l-20 -62 -13 49 c-6 27 -11 50 -10 50 1 0 16 6 32 12 17 6 30 11 31 12 0 1 -9 -27 -20 -61z m-289 38 c1 -1 -4 -24 -10 -50 l-13 -49 -13 42 c-7 24 -15 50 -18 59 -5 12 -1 14 23 8 16 -4 30 -9 31 -10z m-650 -21 c9 -25 -4 -29 -17 -6 -7 15 -7 21 0 21 6 0 13 -7 17 -15z m585 -62 c14 -43 26 -79 25 -80 -5 -4 -127 41 -125 46 15 30 64 111 68 111 3 0 17 -35 32 -77z m117 -20 c-9 -54 -19 -109 -21 -123 -4 -22 -5 -20 -16 15 -16 53 12 205 38 205 15 0 15 -8 -1 -97z m81 75 c1 -13 11 -73 24 -135 l22 -112 -28 -10 c-19 -7 -38 -6 -59 1 -26 9 -30 15 -26 37 3 14 13 74 23 134 12 75 21 107 30 107 8 0 14 -10 14 -22z m94 -61 c15 -71 16 -89 5 -125 -7 -23 -14 -40 -17 -38 -2 3 -14 59 -27 126 l-22 120 21 0 c19 0 24 -11 40 -83z m151 31 c17 -29 31 -55 33 -59 1 -3 -23 -14 -55 -24 -67 -22 -87 -35 -53 -35 29 0 23 -8 -11 -13 -24 -4 -29 -30 -8 -52 14 -15 11 -25 -10 -25 -10 0 -30 -10 -45 -21 -29 -22 -42 -20 -33 5 4 9 13 13 22 10 8 -3 15 -1 15 6 0 6 4 9 8 6 5 -3 9 8 10 25 0 17 6 37 13 45 6 8 8 14 3 14 -5 0 -2 5 7 10 9 5 27 43 40 85 13 41 26 75 29 75 3 0 19 -24 35 -52z m535 23 c0 -5 -7 -16 -15 -25 -9 -8 -15 -18 -15 -21 1 -3 -1 -11 -4 -18 -7 -16 0 23 9 51 7 22 25 31 25 13z m-1683 -33 c-3 -8 -6 -5 -6 6 -1 11 2 17 5 13 3 -3 4 -12 1 -19z m143 -3 c0 -8 -4 -15 -10 -15 -5 0 -10 7 -10 15 0 8 5 15 10 15 6 0 10 -7 10 -15z m1643 -9 c-10 -13 -20 -22 -22 -20 -4 4 29 44 36 44 2 0 -4 -11 -14 -24z m-1763 -41 c0 -5 -5 -3 -10 5 -5 8 -10 20 -10 25 0 6 5 3 10 -5 5 -8 10 -19 10 -25z m550 0 c0 4 3 6 6 2 4 -3 -1 -13 -10 -22 -18 -19 -21 -51 -6 -60 12 -7 -5 -35 -21 -35 -11 0 -33 50 -30 65 9 33 9 45 0 45 -5 0 -9 4 -9 9 0 16 44 18 58 2 6 -8 12 -11 12 -6z m-403 -22 c15 -50 8 -55 -11 -8 -18 43 -19 45 -8 45 4 0 12 -17 19 -37z m873 16 c0 -6 -4 -7 -10 -4 -5 3 -10 11 -10 16 0 6 5 7 10 4 6 -3 10 -11 10 -16z m-286 -4 c-4 -8 -8 -15 -10 -15 -2 0 -4 7 -4 15 0 8 4 15 10 15 5 0 7 -7 4 -15z m994 -28 c-6 -20 -15 -37 -21 -37 -5 0 -7 3 -5 8 3 4 10 22 17 40 17 44 23 36 9 -11z m-136 1 c-8 -8 -9 -4 -5 13 4 13 8 18 11 10 2 -7 -1 -18 -6 -23z m-1552 -25 c11 -25 18 -48 15 -51 -2 -3 -9 7 -15 22 -5 14 -14 37 -20 51 -17 44 -2 27 20 -22z m571 10 c27 -10 49 -21 49 -25 0 -5 9 -8 20 -8 12 0 20 -7 20 -16 0 -11 -5 -14 -17 -10 -9 4 -43 15 -75 24 -42 12 -58 22 -58 35 0 21 1 21 61 0z m583 2 c3 -9 0 -18 -7 -20 -22 -8 -140 -45 -143 -45 -2 0 -4 7 -4 15 0 8 6 15 13 15 6 0 35 11 62 25 59 29 71 30 79 10z m-451 -54 c1 -16 4 -29 7 -29 25 2 38 -5 43 -21 7 -28 -3 -34 -25 -14 -10 9 -28 17 -41 18 -13 2 -20 8 -18 16 16 54 13 69 -10 70 l-24 1 25 7 c29 9 40 -4 43 -48z m828 11 c-6 -2 -11 -13 -12 -25 0 -12 -3 -16 -6 -9 -3 7 1 27 8 45 11 26 14 28 17 12 3 -10 -1 -21 -7 -23z m-1391 14 c0 -3 -4 -8 -10 -11 -5 -3 -10 -1 -10 4 0 6 5 11 10 11 6 0 10 -2 10 -4z m40 -94 c0 -21 -17 -5 -23 20 -2 13 -8 32 -11 43 -4 11 2 4 13 -15 11 -19 20 -41 21 -48z m1474 53 c-4 -8 -8 -15 -10 -15 -2 0 -4 7 -4 15 0 8 4 15 10 15 5 0 7 -7 4 -15z m-1614 -25 c0 -5 -4 -10 -10 -10 -5 0 -10 5 -10 10 0 6 5 10 10 10 6 0 10 -4 10 -10z m1581 -23 c-10 -9 -11 -8 -5 6 3 10 9 15 12 12 3 -3 0 -11 -7 -18z m-121 3 c0 -5 -5 -10 -11 -10 -5 0 -7 5 -4 10 3 6 8 10 11 10 2 0 4 -4 4 -10z m-1439 -32 c8 -18 14 -36 14 -40 0 -4 6 -13 13 -19 6 -7 12 -22 12 -33 -1 -18 -3 -16 -17 8 -8 16 -16 34 -17 40 -1 6 -10 26 -19 44 -10 17 -13 32 -8 32 5 0 15 -15 22 -32z m459 -26 c0 -7 -4 -10 -10 -7 -5 3 -10 16 -10 28 0 18 2 19 10 7 5 -8 10 -21 10 -28z m310 -6 c21 -1 37 6 46 18 28 40 25 5 -6 -89 -19 -56 -36 -93 -41 -88 -10 10 -69 180 -69 197 0 6 9 0 19 -13 12 -16 29 -24 51 -25z m765 -13 c-8 -15 -19 -35 -24 -43 -23 -43 -31 -61 -31 -75 0 -8 -4 -15 -10 -15 -15 0 -12 12 7 40 10 14 16 25 13 25 -2 0 9 27 26 60 16 33 30 55 32 48 2 -6 -4 -24 -13 -40z m-115 28 c0 -6 -4 -13 -10 -16 -5 -3 -10 1 -10 9 0 9 5 16 10 16 6 0 10 -4 10 -9z m-1260 -46 c0 -5 -5 -3 -10 5 -5 8 -10 20 -10 25 0 6 5 3 10 -5 5 -8 10 -19 10 -25z m692 -17 c-8 -8 -9 -4 -5 13 4 13 8 18 11 10 2 -7 -1 -18 -6 -23z m-672 -18 c0 -5 -2 -10 -4 -10 -3 0 -8 5 -11 10 -3 6 -1 10 4 10 6 0 11 -4 11 -10z m-122 -45 c-3 -3 -9 2 -12 12 -6 14 -5 15 5 6 7 -7 10 -15 7 -18z m142 -13 c0 -15 -2 -15 -10 -2 -13 20 -13 33 0 25 6 -3 10 -14 10 -23z m-87 -82 c3 -11 1 -20 -4 -20 -5 0 -9 9 -9 20 0 11 2 20 4 20 2 0 6 -9 9 -20z m47 -101 c0 -6 -4 -7 -10 -4 -5 3 -10 11 -10 16 0 6 5 7 10 4 6 -3 10 -11 10 -16z m18 -54 c-3 -3 -9 2 -12 12 -6 14 -5 15 5 6 7 -7 10 -15 7 -18z m352 -435 c0 -22 -24 -27 -36 -8 -4 7 -3 8 4 4 7 -4 12 -1 12 8 0 9 5 16 10 16 6 0 10 -9 10 -20z m520 1 c0 -13 -6 -18 -17 -17 -10 2 -17 6 -15 9 1 4 2 12 2 17 0 6 7 10 15 10 8 0 15 -9 15 -19z m-615 -95 c12 -12 12 -15 -1 -20 -23 -9 -24 -8 -24 14 0 24 6 25 25 6z m705 0 c0 -19 -26 -27 -39 -12 -13 15 -4 26 21 26 10 0 18 -6 18 -14z"/> <path d="M1420 2395 c-10 -13 -10 -18 2 -33 17 -21 40 -73 35 -79 -3 -2 -25 19 -51 48 -30 33 -51 49 -61 45 -29 -11 -15 -42 35 -80 28 -21 59 -51 70 -66 16 -22 26 -27 52 -25 48 4 48 4 48 18 0 7 27 35 60 63 59 48 74 79 45 90 -9 4 -33 -14 -65 -48 l-50 -53 16 40 c9 22 21 46 27 53 7 9 6 17 -6 29 -20 21 -47 10 -47 -19 0 -13 -7 -43 -14 -68 -15 -49 -18 -47 -39 40 -15 57 -34 73 -57 45z m99 -126 c11 17 23 -1 15 -23 -9 -23 -57 -20 -71 3 -15 24 2 34 30 17 13 -8 20 -8 26 3z"/> </g> </svg> 